<svg xmlns="http://www.w3.org/2000/svg" viewBox="0 0 760 230" role="img" aria-label="Ecosystem map of six engineering systems">
  <style>.m{font-family:ui-monospace,SFMono-Regular,Menlo,Consolas,monospace}.s{font-family:-apple-system,BlinkMacSystemFont,"Segoe UI",Arial,sans-serif}.dim{fill:#8b949e}.link{stroke:#30363d;stroke-width:1.2}.pulse{animation:pulse 3s ease-in-out infinite}@keyframes pulse{50%{opacity:.35}}</style>
  <rect x="1" y="1" width="758" height="228" rx="12" fill="#0d1117" stroke="#30363d"/>
  <text x="25" y="29" class="m" fill="#58a6ff" font-size="11" letter-spacing="1">SYSTEM MAP / 06</text>
  <text x="735" y="29" text-anchor="end" class="m dim" font-size="10">ENGINEERING ECOSYSTEM</text>
  <g class="link"><path d="M380 115L154 77M380 115L380 77M380 115L606 77M380 115L154 178M380 115L380 178M380 115L606 178"/></g>
  <circle cx="380" cy="115" r="29" fill="#10243a" stroke="#58a6ff"/><text x="380" y="111" text-anchor="middle" class="m" fill="#f0f6fc" font-size="11">SYSTEMS</text><text x="380" y="126" text-anchor="middle" class="m" fill="#8b949e" font-size="9">IN MOTION</text>
  <g class="m" font-size="10"><g><rect x="47" y="53" width="214" height="47" rx="7" fill="#161b22" stroke="#30363d"/><circle cx="64" cy="70" r="3" fill="#3fb950" class="pulse"/><text x="76" y="74" fill="#f0f6fc">WORKAHOLIC</text><text x="76" y="90" class="dim">scheduling systems</text></g><g><rect x="273" y="53" width="214" height="47" rx="7" fill="#161b22" stroke="#30363d"/><circle cx="290" cy="70" r="3" fill="#58a6ff" class="pulse"/><text x="302" y="74" fill="#f0f6fc">UAV COMMAND &amp; CONTROL</text><text x="302" y="90" class="dim">secure swarm telemetry</text></g><g><rect x="499" y="53" width="214" height="47" rx="7" fill="#161b22" stroke="#30363d"/><circle cx="516" cy="70" r="3" fill="#f0883e" class="pulse"/><text x="528" y="74" fill="#f0f6fc">AGNISHAKTI</text><text x="528" y="90" class="dim">real-time vision</text></g><g><rect x="47" y="130" width="214" height="47" rx="7" fill="#161b22" stroke="#30363d"/><circle cx="64" cy="147" r="3" fill="#39c5cf" class="pulse"/><text x="76" y="151" fill="#f0f6fc">SRMIST DIGITAL TWIN</text><text x="76" y="167" class="dim">GIS / network intelligence</text></g><g><rect x="273" y="130" width="214" height="47" rx="7" fill="#161b22" stroke="#30363d"/><circle cx="290" cy="147" r="3" fill="#d2a8ff" class="pulse"/><text x="302" y="151" fill="#f0f6fc">HANDWRITING SYNTHESIS</text><text x="302" y="167" class="dim">research / ML / vision</text></g><g><rect x="499" y="130" width="214" height="47" rx="7" fill="#161b22" stroke="#30363d"/><circle cx="516" cy="147" r="3" fill="#3fb950" class="pulse"/><text x="528" y="151" fill="#f0f6fc">SECURE SIGNING</text><text x="528" y="167" class="dim">document workflows</text></g></g>
  <text x="380" y="211" text-anchor="middle" class="m dim" font-size="10" letter-spacing=".6">PRODUCTION ENGINEERING ↔ APPLIED RESEARCH ↔ EXPERIMENTAL PROTOTYPES</text>
</svg>
